<svg id="Capa_1" enable-background="new 0 0 512 512" height="512" viewBox="0 0 512 512" width="512" xmlns="http://www.w3.org/2000/svg" xmlns:xlink="http://www.w3.org/1999/xlink"><linearGradient id="SVGID_1_" gradientUnits="userSpaceOnUse" x1="437.085" x2="-4" y1="74.915" y2="516"><stop offset="0" stop-color="#ffd5b8"/><stop offset="1" stop-color="#fff" stop-opacity="0"/></linearGradient><g><path d="m411.152 155.152c-29.991 0-54.303-24.312-54.303-54.303 0-55.698-45.152-100.849-100.849-100.849-55.697 0-100.848 45.151-100.848 100.848 0 29.991-24.312 54.303-54.303 54.303-55.698.001-100.849 45.152-100.849 100.849 0 55.697 45.151 100.848 100.848 100.848 29.991 0 54.303 24.312 54.303 54.303.001 55.698 45.152 100.849 100.849 100.849 55.697 0 100.848-45.151 100.848-100.848 0-29.991 24.312-54.303 54.303-54.303 55.698-.001 100.849-45.152 100.849-100.849 0-55.697-45.151-100.848-100.848-100.848z" fill="url(#SVGID_1_)"/><g><g><g><path d="m143.209 464.837v-365.312c0-9.108 7.384-16.492 16.492-16.492h202.19c9.108 0 16.492 7.384 16.492 16.492v365.312c0 9.108-7.384 16.492-16.492 16.492h-202.19c-9.108 0-16.492-7.384-16.492-16.492z" fill="#590bb2" opacity=".1"/><path d="m143.209 435.152v-365.312c0-9.108 7.384-16.492 16.492-16.492h202.19c9.108 0 16.492 7.384 16.492 16.492v365.312c0 9.108-7.384 16.492-16.492 16.492h-202.19c-9.108 0-16.492-7.384-16.492-16.492z" fill="#c182f9"/><g><path d="m143.21 86.336h235.172v332.32h-235.172z" fill="#fff"/></g><path d="m242.13 275.647h-61.543c-2.897 0-5.245-2.348-5.245-5.245v-61.542c0-2.897 2.348-5.245 5.245-5.245h61.543c2.897 0 5.245 2.348 5.245 5.245v61.543c0 2.896-2.348 5.244-5.245 5.244z" fill="#fff4c5"/><path d="m378.383 418.656h-147.093v-155.717c0-1.672.4-3.32 1.166-4.807l67.718-131.361c1.953-3.789 7.371-3.789 9.324 0l67.718 131.361c.766 1.486 1.166 3.134 1.166 4.807v155.717z" fill="#ffd5b8"/><g><path d="m231.29 418.656h49.031v-133.747c0-13.539-10.976-24.515-24.515-24.515-13.539 0-24.515 10.976-24.515 24.515v133.747z" fill="#fdd250"/><path d="m280.321 418.656h49.031v-133.747c0-13.539-10.976-24.515-24.515-24.515-13.539 0-24.515 10.976-24.515 24.515v133.747z" fill="#cca1ff"/><path d="m329.352 418.656h49.031v-133.747c0-13.539-10.976-24.515-24.515-24.515-13.539 0-24.515 10.976-24.515 24.515v133.747z" fill="#ffa052"/></g><g fill="#590bb2"><path d="m361.891 456.644h-128.59c-2.762 0-5-2.239-5-5s2.238-5 5-5h128.59c6.337 0 11.492-5.155 11.492-11.492v-299.852c0-2.761 2.238-5 5-5s5 2.239 5 5v299.852c0 11.851-9.642 21.492-21.492 21.492z"/><path d="m202.699 456.644h-42.998c-11.851 0-21.492-9.641-21.492-21.492v-365.312c0-11.851 9.642-21.492 21.492-21.492h202.189c11.851 0 21.492 9.641 21.492 21.492v34.86c0 2.761-2.238 5-5 5s-5-2.239-5-5v-34.86c0-6.336-5.155-11.492-11.492-11.492h-202.189c-6.337 0-11.492 5.155-11.492 11.492v365.313c0 6.336 5.155 11.492 11.492 11.492h42.998c2.762 0 5 2.239 5 5s-2.238 4.999-5 4.999z"/></g></g><g><path d="m207.905 174.556-14.636-9.971-14.636 9.971c-3.649 2.486-8.592-.127-8.592-4.543v-67.745h46.457v67.745c-.001 4.416-4.944 7.029-8.593 4.543z" fill="#f7f3ff"/><path d="m207.905 158.624-14.636-9.971-14.636 9.971c-3.649 2.486-8.592-.127-8.592-4.543v-67.745h46.457v67.745c-.001 4.416-4.944 7.029-8.593 4.543" fill="#ffa052"/></g><circle cx="315.065" cy="72.054" fill="#9526dd" r="4.815"/><circle cx="331.381" cy="72.054" fill="#9526dd" r="4.815"/><path d="m341.868 189.564c-9.861 6.651-22.827 10.689-37.031 10.689-14.214 0-27.18-4.039-37.041-10.689l32.373-62.794c1.962-3.787 7.375-3.787 9.326 0z" fill="#ffeadc"/><path d="m341.868 189.564c-9.861 6.651-22.827 10.689-37.031 10.689-14.214 0-27.18-4.039-37.041-10.689l32.373-62.794c1.962-3.787 7.375-3.787 9.326 0z" fill="#ff8736"/></g><path d="m107.054 109.079h-3.385v-3.385c0-2.761-2.238-5-5-5s-5 2.239-5 5v3.385h-3.384c-2.762 0-5 2.239-5 5s2.238 5 5 5h3.384v3.384c0 2.761 2.238 5 5 5s5-2.239 5-5v-3.384h3.385c2.762 0 5-2.239 5-5s-2.239-5-5-5z" fill="#c182f9"/><path d="m95.438 179.002h-3.385v-3.384c0-2.761-2.238-5-5-5s-5 2.239-5 5v3.384h-3.385c-2.762 0-5 2.239-5 5s2.238 5 5 5h3.385v3.385c0 2.761 2.238 5 5 5s5-2.239 5-5v-3.385h3.385c2.762 0 5-2.239 5-5s-2.238-5-5-5z" fill="#fdd250"/><path d="m423.669 228.375h-3.384v-3.384c0-2.761-2.238-5-5-5s-5 2.239-5 5v3.384h-3.385c-2.762 0-5 2.239-5 5s2.238 5 5 5h3.385v3.385c0 2.761 2.238 5 5 5s5-2.239 5-5v-3.385h3.384c2.762 0 5-2.239 5-5s-2.238-5-5-5z" fill="#fdd250"/><path d="m423.669 189.002c-1.279 0-2.56-.488-3.535-1.464l-4.849-4.849-4.85 4.849c-1.951 1.952-5.119 1.952-7.07 0-1.953-1.953-1.953-5.119 0-7.071l8.385-8.384c.938-.938 2.209-1.464 3.535-1.464 1.326 0 2.598.527 3.535 1.464l8.384 8.384c1.953 1.953 1.953 5.119 0 7.071-.975.976-2.256 1.464-3.535 1.464z" fill="#ffa052"/><path d="m115.438 395.719c-1.279 0-2.56-.488-3.535-1.464l-4.85-4.849-4.85 4.849c-1.951 1.952-5.119 1.952-7.07 0-1.953-1.953-1.953-5.119 0-7.071l8.385-8.385c1.951-1.952 5.119-1.952 7.07 0l8.385 8.385c1.953 1.953 1.953 5.119 0 7.071-.975.975-2.255 1.464-3.535 1.464z" fill="#c182f9"/><path d="m288.336 390.719h-104c-2.761 0-5-2.239-5-5v-21.871c0-2.761 2.239-5 5-5h104c2.761 0 5 2.239 5 5v21.871c0 2.761-2.239 5-5 5z" fill="#b557ff"/><g><g><g><path d="m233.855 317.546h-49.52c-2.762 0-5-2.239-5-5s2.238-5 5-5h49.52c2.762 0 5 2.239 5 5s-2.238 5-5 5z" fill="#c182f9"/></g><g><path d="m260.855 335.048h-76.52c-2.762 0-5-2.239-5-5s2.238-5 5-5h76.52c2.762 0 5 2.239 5 5s-2.238 5-5 5z" fill="#c182f9"/></g></g><g fill="#c182f9"><circle cx="185.883" cy="294.495" r="5"/><circle cx="202.133" cy="294.495" r="5"/></g></g></g></g></svg>