<svg id="Capa_1" enable-background="new 0 0 512 512" height="512" viewBox="0 0 512 512" width="512" xmlns="http://www.w3.org/2000/svg" xmlns:xlink="http://www.w3.org/1999/xlink"><linearGradient id="SVGID_1_" gradientUnits="userSpaceOnUse" x1="600.494" x2="-111.506" y1="64.098" y2="552.098"><stop offset=".0023" stop-color="#ffc599"/><stop offset=".992" stop-color="#ffe8dc" stop-opacity="0"/></linearGradient><path d="m465.257 164.114c-14.861-17.312-24.645-38.356-29.218-60.708-3.878-18.954-12.095-35.401-24.961-48.267-58.773-58.773-192.264-20.572-298.161 85.325s-144.098 239.387-85.325 298.16c27.937 27.937 72.757 33.955 123.469 21.212 29.453-7.401 60.532-4.287 88.29 8.03 23.202 10.295 48.799 16.173 75.724 16.566 105.676 1.543 193.748-82.552 196.839-188.195 1.479-50.505-16.354-96.822-46.657-132.123z" fill="url(#SVGID_1_)"/><path d="m440.291 327.124c-1.28 0-2.559-.488-3.536-1.465-1.953-1.952-1.953-5.118 0-7.07l10-10c1.953-1.953 5.118-1.953 7.071 0 1.953 1.952 1.953 5.118 0 7.07l-10 10c-.976.977-2.255 1.465-3.535 1.465z" fill="#ff6c6c"/><path d="m82.278 152.599c-1.28 0-2.559-.488-3.536-1.465-1.953-1.952-1.953-5.118 0-7.07l10-10c1.953-1.953 5.118-1.953 7.071 0 1.953 1.952 1.953 5.118 0 7.07l-10 10c-.976.976-2.255 1.465-3.535 1.465z" fill="#6c6cff"/><path d="m81.709 327.124c-1.28 0-2.559-.488-3.536-1.465l-6.464-6.464-6.464 6.464c-1.953 1.953-5.118 1.953-7.071 0-1.953-1.952-1.953-5.118 0-7.07l10-10c1.953-1.953 5.118-1.953 7.071 0l10 10c1.953 1.952 1.953 5.118 0 7.07-.977.977-2.256 1.465-3.536 1.465z" fill="#ff9d33"/><path d="m110.32 271.538c-1.28 0-2.559-.488-3.536-1.465l-6.464-6.464-6.464 6.464c-1.953 1.953-5.118 1.953-7.071 0-1.953-1.952-1.953-5.118 0-7.07l10-10c1.953-1.953 5.118-1.953 7.071 0l10 10c1.953 1.952 1.953 5.118 0 7.07-.977.977-2.256 1.465-3.536 1.465z" fill="#ff6c6c"/><path d="m424.196 227.432c-1.28 0-2.559-.488-3.536-1.465l-6.464-6.464-6.464 6.464c-1.953 1.953-5.118 1.953-7.071 0-1.953-1.952-1.953-5.118 0-7.07l10-10c1.953-1.953 5.118-1.953 7.071 0l10 10c1.953 1.952 1.953 5.118 0 7.07-.977.976-2.256 1.465-3.536 1.465z" fill="#ff9d33"/><path d="m351.888 476.5h-191.775c-12.208 0-22.105-9.897-22.105-22.105v-375.79c0-12.208 9.897-22.105 22.105-22.105h191.775c12.208 0 22.105 9.897 22.105 22.105v375.789c0 12.209-9.897 22.106-22.105 22.106z" fill="#00c" opacity=".1"/><path d="m386.443 145.09h-21.522v-66.913h21.522c3.803 0 6.885 3.083 6.885 6.885v53.143c0 3.803-3.082 6.885-6.885 6.885z" fill="#6c6cff"/><path d="m122.407 213.943h24.672v-135.766h-24.672c-3.803 0-3.735 3.083-3.735 6.885v121.995c0 3.803-.067 6.886 3.735 6.886z" fill="#6c6cff"/><path d="m351.888 455.5h-191.775c-12.208 0-22.105-9.897-22.105-22.105v-375.79c0-12.208 9.897-22.105 22.105-22.105h191.775c12.208 0 22.105 9.897 22.105 22.105v375.789c0 12.209-9.897 22.106-22.105 22.106z" fill="#ff9d33"/><path d="m138.007 87.627h235.985v315.746h-235.985z" fill="#fff"/><path d="m276.26 66.5h-40.52c-2.762 0-5-2.239-5-5s2.238-5 5-5h40.52c2.762 0 5 2.239 5 5s-2.239 5-5 5z" fill="#ff4d4d"/><path d="m235.667 422.5v12.667c0 2.761 2.239 5 5 5h30.667c2.761 0 5-2.239 5-5v-12.667c0-2.761-2.239-5-5-5h-30.667c-2.762 0-5 2.238-5 5z" fill="#ff4d4d"/><path d="m335.01 433.833h-16.52c-2.762 0-5-2.239-5-5s2.238-5 5-5h16.52c2.762 0 5 2.239 5 5s-2.239 5-5 5z" fill="#ff4d4d"/><path d="m193.51 433.833h-16.52c-2.762 0-5-2.239-5-5s2.238-5 5-5h16.52c2.762 0 5 2.239 5 5s-2.239 5-5 5z" fill="#ff4d4d"/><path d="m312.025 318.574h-42.191c-2.761 0-5-2.239-5-5v-42.191c0-2.761 2.239-5 5-5h42.191c2.761 0 5 2.239 5 5v42.191c0 2.761-2.239 5-5 5z" fill="#ebebff"/><path d="m242.167 318.574h-42.191c-2.761 0-5-2.239-5-5v-42.191c0-2.761 2.239-5 5-5h42.191c2.761 0 5 2.239 5 5v42.191c0 2.761-2.239 5-5 5z" fill="#ebebff"/><path d="m312.025 219.751h-42.191c-2.761 0-5-2.239-5-5v-42.191c0-2.761 2.239-5 5-5h42.191c2.761 0 5 2.239 5 5v42.191c0 2.762-2.239 5-5 5z" fill="#ebebff"/><path d="m242.167 219.751h-42.191c-2.761 0-5-2.239-5-5v-42.191c0-2.761 2.239-5 5-5h42.191c2.761 0 5 2.239 5 5v42.191c0 2.762-2.239 5-5 5z" fill="#ebebff"/><path d="m340.609 236.774c2.002 3.25 2.001 7.342-.001 10.592-17.486 28.367-48.842 47.274-84.607 47.274s-67.121-18.907-84.607-47.274c-2.003-3.249-2.003-7.342-.001-10.592 17.479-28.374 48.836-47.281 84.609-47.281s67.127 18.907 84.607 47.281z" fill="#ffab66"/><path d="m340.61 247.366c-17.49 28.37-48.84 47.27-84.61 47.27s-67.12-18.9-84.61-47.27c-2-3.25-2-7.34 0-10.59.13-.21.27-.43.41-.64 17.56 28.01 48.71 46.62 84.2 46.62s66.64-18.61 84.2-46.62c.14.21.28.43.41.64 2 3.25 2 7.34 0 10.59z" fill="#ff9d33"/><path d="m302.76 213.716c0 25.82-20.93 46.76-46.76 46.76s-46.76-20.94-46.76-46.76c0-4.72.7-9.29 2.01-13.59 13.45-6.8 28.65-10.63 44.75-10.63s31.3 3.83 44.75 10.63c1.31 4.3 2.01 8.87 2.01 13.59z" fill="#2c27ff"/><path d="m294.18 202.576c0 21.08-17.09 38.18-38.18 38.18s-38.18-17.1-38.18-38.18c0-1.92.14-3.81.42-5.65 11.64-4.79 24.39-7.43 37.76-7.43s26.12 2.64 37.76 7.43c.28 1.84.42 3.73.42 5.65z" fill="#4d4dff"/><circle cx="288.845" cy="245.265" fill="#ffe8dc" r="13.915"/><circle cx="277.995" cy="217.343" fill="#9494ff" r="7.643"/><path d="m386.443 73.177h-7.453v-15.567c0-14.948-12.157-27.11-27.1-27.11h-191.78c-14.943 0-27.1 12.162-27.1 27.11v15.566h-10.603c-3.777 0-6.669 1.878-7.934 5.151-.803 2.079-.802 4.347-.802 6.54v122.383c0 2.193-.001 4.462.802 6.541 1.265 3.273 4.156 5.15 7.934 5.15 0 0 14.886-.002 15.603-.002 2.761 0 5-2.238 5-5v-121.312h230.983c2.761 0 5-2.238 5-5 0-.008-.002-.016-.002-.024v-4.426h7.453c1.04 0 1.885.846 1.885 1.885v53.144c0 1.039-.846 1.885-1.885 1.885h-7.453v-18.463c0-2.762-2.239-5-5-5s-5 2.238-5 5v276.746h-225.981v-150.374c0-2.762-2.239-5-5-5s-5 2.238-5 5v185.39c0 14.948 12.157 27.11 27.1 27.11h191.78c14.943 0 27.1-12.162 27.1-27.11v-283.3h7.453c6.554 0 11.885-5.331 11.885-11.885v-53.143c0-6.554-5.331-11.885-11.885-11.885zm-262.771 134.077v-122.389c0-.5 0-1.129.017-1.688h9.321v4.426c0 .008-.002.016-.002.024s.002.016.002.024v53.74c-1.896.711-3.252 2.524-3.252 4.669s1.356 3.958 3.252 4.669v58.214h-9.321c-.018-.56-.017-1.189-.017-1.689zm19.338-149.644c0-9.435 7.671-17.11 17.1-17.11h191.78c9.429 0 17.1 7.676 17.1 17.11v25.017h-225.98zm208.88 392.89h-191.78c-9.429 0-17.1-7.676-17.1-17.11v-25.017h225.98v25.017c0 9.434-7.671 17.11-17.1 17.11z" fill="#00c"/><path d="m171.202 124.003 2.298-2.299 2.298 2.299c.976.976 2.255 1.464 3.535 1.464s2.56-.488 3.536-1.465c1.953-1.952 1.953-5.118 0-7.071l-5.833-5.833c-1.952-1.951-5.118-1.951-7.07 0l-5.833 5.833c-1.953 1.953-1.953 5.119 0 7.071 1.951 1.953 5.117 1.953 7.069.001z" fill="#00c"/><path d="m325.5 142.86c-9.161 0-16.613-7.453-16.613-16.613s7.453-16.613 16.613-16.613 16.613 7.453 16.613 16.613-7.452 16.613-16.613 16.613zm0-23.226c-3.646 0-6.613 2.967-6.613 6.613s2.967 6.613 6.613 6.613 6.613-2.967 6.613-6.613-2.967-6.613-6.613-6.613z" fill="#ffab66"/><path d="m337.113 154.474c-2.761 0-5-2.238-5-5 0-3.646-2.967-6.613-6.613-6.613s-6.613 2.967-6.613 6.613c0 2.762-2.239 5-5 5s-5-2.238-5-5c0-9.16 7.453-16.613 16.613-16.613s16.613 7.453 16.613 16.613c0 2.761-2.238 5-5 5z" fill="#ffab66"/><g fill="#d9d9ff"><path d="m293 154.473h-12.5c-2.762 0-5-2.239-5-5s2.238-5 5-5h12.5c2.762 0 5 2.239 5 5s-2.238 5-5 5z"/><path d="m293 137.247h-12.5c-2.762 0-5-2.239-5-5s2.238-5 5-5h12.5c2.762 0 5 2.239 5 5s-2.238 5-5 5z"/><path d="m271.39 375.33h-99.5c-2.762 0-5-2.239-5-5s2.238-5 5-5h99.5c2.762 0 5 2.239 5 5s-2.238 5-5 5z"/><path d="m184.39 355.104h-12.5c-2.762 0-5-2.239-5-5s2.238-5 5-5h12.5c2.762 0 5 2.239 5 5s-2.238 5-5 5z"/><path d="m235.11 355.104h-33.5c-2.762 0-5-2.239-5-5s2.238-5 5-5h33.5c2.762 0 5 2.239 5 5s-2.238 5-5 5z"/></g><path d="m184.39 326.524h-12.5c-2.762 0-5-2.239-5-5s2.238-5 5-5h12.5c2.762 0 5 2.239 5 5s-2.238 5-5 5z" fill="#ff9d33"/><path d="m325.382 368.455h-19.012c-2.761 0-5-2.238-5-5s2.239-5 5-5h19.012c3.129 0 5.676-2.546 5.676-5.676s-2.546-5.676-5.676-5.676h-13.788c-8.644 0-15.676-7.032-15.676-15.676s7.032-15.675 15.676-15.675h19.013c2.761 0 5 2.238 5 5s-2.239 5-5 5h-19.013c-3.129 0-5.676 2.546-5.676 5.675 0 3.13 2.546 5.676 5.676 5.676h13.788c8.644 0 15.676 7.032 15.676 15.676s-7.033 15.676-15.676 15.676z" fill="#ff7300"/><path d="m318.488 376.405c-2.761 0-5-2.238-5-5v-58.603c0-2.762 2.239-5 5-5s5 2.238 5 5v58.603c0 2.762-2.239 5-5 5z" fill="#ff7300"/></svg>