<svg id="Capa_1" enable-background="new 0 0 512 512" height="512" viewBox="0 0 512 512" width="512" xmlns="http://www.w3.org/2000/svg" xmlns:xlink="http://www.w3.org/1999/xlink"><linearGradient id="SVGID_1_" gradientUnits="userSpaceOnUse" x1="430.994" x2="-9.006" y1="525.065" y2="-10.935"><stop offset=".0023" stop-color="#ff9494"/><stop offset=".992" stop-color="#ffe8dc" stop-opacity="0"/></linearGradient><g><path d="m419.843 204.806c1.055-7.758 1.571-15.687 1.509-23.748-.692-90.025-74.256-163.486-164.281-164.057-91.815-.581-166.428 73.673-166.428 165.354 0 7.615.516 15.109 1.513 22.45 4.043 29.747-9.887 59.143-35.212 75.263-35.611 22.668-56.944 51.54-56.944 82.98 0 72.876 114.615 131.954 256 131.954s256-59.078 256-131.954c0-31.44-21.334-60.312-56.946-82.98-25.325-16.12-39.254-45.516-35.211-75.262z" fill="url(#SVGID_1_)"/><g><g><g><path d="m217 193.732v19.328h-162.489c-5.523 0-10 4.477-10 10v208.667c0 5.523 4.477 10 10 10h402.978c5.523 0 10-4.477 10-10v-237.995c0-5.523-4.477-10-10-10h-230.489c-5.523 0-10 4.477-10 10z" fill="#00c" opacity=".1"/><path d="m193.687 189.489h-67.5v-27.757c0-2.761 2.239-5 5-5h57.5c2.761 0 5 2.239 5 5z" fill="#6c6cff"/><path d="m106.687 189.489h-37.5v-27.757c0-2.761 2.239-5 5-5h27.5c2.761 0 5 2.239 5 5z" fill="#ff6c6c"/><path d="m217 166.732v19.328h-162.489c-5.523 0-10 4.477-10 10v208.667c0 5.523 4.477 10 10 10h402.978c5.523 0 10-4.477 10-10v-237.995c0-5.523-4.477-10-10-10h-230.489c-5.523 0-10 4.477-10 10z" fill="#9494ff"/><path d="m44.511 251.199h422.978v139.861h-422.978z" fill="#6c6cff"/><g fill="#00c"><path d="m457.489 151.732h-169.489c-2.762 0-5 2.238-5 5s2.238 5 5 5h169.489c2.757 0 5 2.243 5 5v94.768c0 2.762 2.238 5 5 5s5-2.238 5-5v-94.768c0-8.271-6.728-15-15-15z"/><path d="m467.489 290.5c-2.762 0-5 2.238-5 5v109.227c0 2.757-2.243 5-5 5h-402.978c-2.757 0-5-2.243-5-5v-208.666c0-2.757 2.243-5 5-5h162.489c2.762 0 5-2.238 5-5v-19.328c0-2.757 2.243-5 5-5h27c2.762 0 5-2.238 5-5s-2.238-5-5-5h-27c-8.271 0-15 6.729-15 15v14.328h-13.313v-19.329c0-5.514-4.486-10-10-10h-57.5c-5.514 0-10 4.486-10 10v19.329h-9.5v-19.329c0-5.514-4.486-10-10-10h-27.5c-5.514 0-10 4.486-10 10v19.329h-9.677c-8.271 0-15 6.729-15 15v208.666c0 8.271 6.729 15 15 15h402.979c8.271 0 15-6.729 15-15v-109.227c0-2.762-2.238-5-5-5zm-336.301-128.769h57.5v19.329h-57.5zm-57 0h27.5v19.329h-27.5z"/></g><circle cx="256" cy="322.63" fill="#ebebff" r="75.989"/><circle cx="256" cy="322.63" fill="#6c6cff" r="68.43"/><circle cx="305.021" cy="206.418" fill="#ff6c6c" r="21.437"/><circle cx="91.428" cy="251.199" fill="#ebebff" r="15.158"/><circle cx="150.392" cy="318.665" fill="#b3b3ff" r="11.194"/><circle cx="161.586" cy="345" fill="#b3b3ff" r="7.992"/><path d="m420.833 229.136h-64.667c-2.761 0-5-2.239-5-5v-35.436c0-2.761 2.239-5 5-5h64.667c2.761 0 5 2.239 5 5v35.435c0 2.762-2.238 5.001-5 5.001z" fill="#6c6cff"/><path d="m363.548 197.56h49.903v31.667h-49.903z" fill="#8383ff"/><g><circle cx="256" cy="322.63" fill="#b3b3ff" r="53.015"/><circle cx="256" cy="322.63" fill="#d9d9ff" r="40.5"/><circle cx="276.828" cy="301.802" fill="#9494ff" r="16.742"/></g><g><path d="m439.767 373.13h-76.52c-2.762 0-5-2.239-5-5s2.238-5 5-5h76.52c2.762 0 5 2.239 5 5s-2.238 5-5 5z" fill="#ff6c6c"/></g></g><g><g><g><path d="m280.433 114.472c-.884 0-1.777-.234-2.589-.726-6.578-3.991-14.132-6.101-21.844-6.101s-15.266 2.109-21.844 6.101c-2.362 1.433-5.436.679-6.869-1.682-1.432-2.361-.679-5.437 1.682-6.869 8.143-4.938 17.49-7.55 27.031-7.55s18.889 2.611 27.031 7.55c2.36 1.433 3.113 4.508 1.682 6.869-.942 1.55-2.59 2.408-4.28 2.408z" fill="#00c"/></g><g><path d="m266.392 130.709c-.883 0-1.777-.234-2.588-.726-4.701-2.852-10.906-2.852-15.607 0-2.358 1.432-5.435.679-6.868-1.683-1.432-2.36-.679-5.436 1.683-6.868 3.914-2.374 8.405-3.629 12.989-3.629s9.075 1.255 12.989 3.629c2.361 1.433 3.114 4.508 1.683 6.868-.942 1.552-2.591 2.409-4.281 2.409z" fill="#00c"/></g><g><path d="m293.424 97.388c-.883 0-1.777-.234-2.588-.726-10.493-6.364-22.539-9.729-34.836-9.729s-24.343 3.364-34.836 9.729c-2.361 1.433-5.437.679-6.868-1.683-1.432-2.36-.679-5.436 1.683-6.868 12.056-7.313 25.896-11.178 40.021-11.178s27.966 3.865 40.021 11.178c2.361 1.433 3.114 4.508 1.683 6.868-.94 1.551-2.59 2.409-4.28 2.409z" fill="#00c"/></g></g><g opacity=".1"><g><path d="m280.433 141.472c-.883 0-1.778-.234-2.588-.726-6.579-3.991-14.132-6.1-21.845-6.1s-15.266 2.109-21.845 6.1c-2.361 1.433-5.436.68-6.868-1.682-1.432-2.361-.679-5.436 1.682-6.868 8.143-4.939 17.49-7.55 27.031-7.55s18.889 2.611 27.031 7.55c2.361 1.432 3.114 4.507 1.682 6.868-.941 1.55-2.59 2.408-4.28 2.408z" fill="#00c"/></g><g><path d="m266.392 157.709c-.883 0-1.778-.234-2.588-.726-4.698-2.85-10.908-2.85-15.606 0-2.361 1.433-5.436.68-6.868-1.682s-.679-5.436 1.682-6.868c3.914-2.374 8.405-3.628 12.99-3.628s9.076 1.255 12.99 3.628c2.361 1.432 3.114 4.507 1.682 6.868-.943 1.55-2.592 2.408-4.282 2.408z" fill="#00c"/></g><g><path d="m293.423 124.387c-.883 0-1.778-.234-2.588-.726-10.491-6.364-22.537-9.729-34.835-9.729s-24.344 3.364-34.835 9.729c-2.362 1.433-5.437.68-6.868-1.682-1.432-2.361-.679-5.436 1.682-6.868 12.055-7.313 25.895-11.179 40.021-11.179s27.966 3.866 40.021 11.179c2.361 1.432 3.114 4.507 1.682 6.868-.94 1.551-2.59 2.408-4.28 2.408z" fill="#00c"/></g></g></g></g><g><path d="m436.756 135.271c-7.175 0-13.013-5.838-13.013-13.013s5.838-13.012 13.013-13.012 13.012 5.837 13.012 13.012-5.837 13.013-13.012 13.013zm0-16.025c-1.661 0-3.013 1.351-3.013 3.012s1.352 3.013 3.013 3.013 3.012-1.352 3.012-3.013-1.351-3.012-3.012-3.012z" fill="#ff6c6c"/></g><g><path d="m161.586 131.07c-7.175 0-13.012-5.837-13.012-13.012s5.837-13.012 13.012-13.012 13.012 5.837 13.012 13.012-5.837 13.012-13.012 13.012zm0-16.023c-1.661 0-3.012 1.351-3.012 3.012s1.351 3.012 3.012 3.012 3.012-1.351 3.012-3.012-1.351-3.012-3.012-3.012z" fill="#ff6c6c"/></g><g><path d="m76.27 470.804c-7.175 0-13.013-5.837-13.013-13.012s5.838-13.012 13.013-13.012 13.012 5.837 13.012 13.012-5.838 13.012-13.012 13.012zm0-16.024c-1.661 0-3.013 1.351-3.013 3.012s1.352 3.012 3.013 3.012 3.012-1.351 3.012-3.012-1.351-3.012-3.012-3.012z" fill="#6c6cff"/></g><g><path d="m114 73.78c-1.279 0-2.56-.488-3.535-1.465l-11.292-11.292c-1.953-1.952-1.953-5.118 0-7.07l11.292-11.292c1.951-1.953 5.119-1.953 7.07 0l11.292 11.292c1.953 1.952 1.953 5.118 0 7.07l-11.292 11.292c-.975.977-2.256 1.465-3.535 1.465zm-4.221-16.292 4.221 4.221 4.221-4.221-4.221-4.22z" fill="#ff9d33"/></g><g><path d="m416.452 95.28c-1.326 0-2.598-.526-3.535-1.465l-11.293-11.293c-.938-.938-1.465-2.209-1.465-3.535s.527-2.598 1.465-3.536l11.293-11.292c1.951-1.951 5.119-1.952 7.07.001l11.292 11.292c1.953 1.952 1.953 5.118.001 7.07l-11.292 11.293c-.938.938-2.21 1.465-3.536 1.465zm-4.222-16.293 4.222 4.222 4.221-4.222-4.221-4.221z" fill="#6c6cff"/></g></g></g></svg>