<svg id="Capa_1" enable-background="new 0 0 512 512" height="512" viewBox="0 0 512 512" width="512" xmlns="http://www.w3.org/2000/svg" xmlns:xlink="http://www.w3.org/1999/xlink"><linearGradient id="SVGID_1_" gradientUnits="userSpaceOnUse" x1="508.537" x2="-41.463" y1="6.632" y2="410.632"><stop offset=".0023" stop-color="#ffc599"/><stop offset=".992" stop-color="#ffe8dc" stop-opacity="0"/></linearGradient><g><path d="m512 192.135c0-77.209-114.615-139.799-256-139.799s-256 62.59-256 139.799c0 12.48 2.999 24.577 8.62 36.089 10.007 20.491 12.502 43.828 7.537 66.086-2.036 9.127-3.179 18.59-3.333 28.294-1.235 77.812 61.961 142.061 139.782 142.06 58.443 0 108.503-35.865 129.385-86.785 11.468-27.964 35.565-48.919 65.155-55.077 96.38-20.057 164.854-70.992 164.854-130.667z" fill="url(#SVGID_1_)"/><g><g><g opacity=".1"><g><g><g><path d="m391.099 116.398c-1.28 0-2.559-.488-3.536-1.464-1.953-1.953-1.953-5.119 0-7.071l15.876-15.875c1.954-1.952 5.119-1.951 7.071 0 1.953 1.953 1.953 5.119 0 7.071l-15.876 15.875c-.975.976-2.255 1.464-3.535 1.464z" fill="#00c"/></g></g></g><g><g><g><path d="m213.568 116.398c-1.28 0-2.559-.488-3.536-1.464l-15.876-15.875c-1.953-1.953-1.953-5.119 0-7.071s5.118-1.952 7.071 0l15.876 15.875c1.953 1.953 1.953 5.119 0 7.071-.976.976-2.255 1.464-3.535 1.464z" fill="#00c"/></g></g></g><g><g><g><path d="m450.32 205.164h-22.452c-2.761 0-5-2.239-5-5s2.239-5 5-5h22.452c2.761 0 5 2.239 5 5s-2.239 5-5 5z" fill="#00c"/></g></g><g><path d="m176.8 205.164h-22.452c-2.761 0-5-2.239-5-5s2.239-5 5-5h22.452c2.761 0 5 2.239 5 5s-2.239 5-5 5z" fill="#00c"/></g></g><g><g><g><path d="m302.333 79.63c-2.761 0-5-2.239-5-5v-22.452c0-2.761 2.239-5 5-5s5 2.239 5 5v22.452c0 2.761-2.238 5-5 5z" fill="#00c"/></g></g></g></g><g fill="#00c" opacity=".1"><path d="m169.872 323.933h-95.574c-9.73 0-17.617 7.888-17.617 17.617v132.654c0 9.73 7.888 17.617 17.617 17.617h95.575c9.73 0 17.617-7.888 17.617-17.617v-132.653c0-9.73-7.888-17.618-17.618-17.618z"/><path d="m302.335 95.966c-55.915-.001-101.198 45.053-101.468 100.968-.146 30.196 12.901 57.346 33.709 76.023 16.766 15.049 28.07 34.998 32.14 56.765-5.302 3.15-8.866 8.917-8.866 15.532v39.055c0 8.381 5.713 15.409 13.451 17.454v26.064c0 5.585 4.528 10.112 10.112 10.112s10.112-4.528 10.112-10.112v-25.445h21.617v25.445c0 5.585 4.528 10.112 10.112 10.112s10.112-4.528 10.112-10.112v-26.064c7.738-2.045 13.451-9.073 13.451-17.454v-39.055c0-6.614-3.564-12.382-8.866-15.532 4.068-21.765 15.369-41.714 32.134-56.759 20.697-18.574 33.717-45.53 33.717-75.529 0-56.038-45.429-101.467-101.467-101.468z"/></g><g><g><g><path d="m169.872 464.822h-95.574c-9.73 0-17.617-7.888-17.617-17.617v-132.654c0-9.73 7.888-17.617 17.617-17.617h95.575c9.73 0 17.617 7.888 17.617 17.617v132.654c0 9.729-7.888 17.617-17.618 17.617z" fill="#fff"/></g><path d="m140.877 296.933v5.253c0 10.378-8.413 18.792-18.792 18.792-10.378 0-18.792-8.413-18.792-18.792v-5.253z" fill="#ff6c6c"/></g><g><path d="m146.599 364.458v49.21c0 13.54-10.97 24.52-24.51 24.52s-24.52-10.98-24.52-24.52v-49.21c0-13.55 10.98-24.52 24.52-24.52 6.77 0 12.9 2.74 17.33 7.18 4.44 4.44 7.18 10.56 7.18 17.34z" fill="#6c6cff"/><path d="m146.599 364.458v30.97c-6.74 5.35-15.26 8.54-24.51 8.54s-17.78-3.2-24.52-8.54v-30.97c0-13.55 10.98-24.52 24.52-24.52 6.77 0 12.9 2.74 17.33 7.18 4.44 4.44 7.18 10.56 7.18 17.34z" fill="#4d4dff"/><circle cx="122.085" cy="364.454" fill="#ffab66" r="24.518"/></g></g><g><g><path d="m291.525 362.404v38.423c0 5.585-4.528 10.112-10.112 10.112s-10.112-4.528-10.112-10.112v-38.423z" fill="#ffab66"/><path d="m333.367 362.404v38.423c0 5.585-4.528 10.112-10.112 10.112-5.585 0-10.112-4.528-10.112-10.112v-38.423z" fill="#ffab66"/><g fill="#ff9d33"><path d="m271.301 362.404h20.225v30.157h-15.6c-1.594 0-3.145-.211-4.625-.599z"/><path d="m333.367 362.404v29.558c-1.48.388-3.03.599-4.625.599h-15.6v-30.157z"/></g></g><path d="m234.576 245.957c19.714 17.696 31.884 42.165 33.61 68.401h68.295c1.725-26.233 13.89-50.703 33.604-68.395 20.697-18.574 33.717-45.53 33.717-75.529 0-56.039-45.428-101.467-101.467-101.468-55.915-.001-101.198 45.053-101.468 100.968-.146 30.197 12.901 57.346 33.709 76.023z" fill="#ffab66"/><g><path d="m321.269 302.798h-37.87l3.39-16.75 6.94-34.34h17.21l6.94 34.34z" fill="#ff8b00"/></g><path d="m317.879 286.048c-4.71 2.68-10.07 4.11-15.54 4.11s-10.84-1.43-15.55-4.11l6.94-34.34h17.21z" fill="#ff7300"/><path d="m328.745 375.382h-52.822c-9.981 0-18.073-8.091-18.073-18.073v-39.055c0-9.981 8.091-18.073 18.073-18.073h52.822c9.981 0 18.073 8.091 18.073 18.073v39.055c-.001 9.982-8.092 18.073-18.073 18.073z" fill="#6c6cff"/><path d="m257.85 323.496h88.968v14.286h-88.968z" fill="#b3b3ff"/><g><path d="m327.036 241.096c0 12.138-5.488 22.995-14.117 30.222-6.117 5.123-15.05 5.124-21.168.001-8.632-7.227-14.121-18.084-14.121-30.223 0-12.137 5.486-22.988 14.116-30.214 6.12-5.125 15.059-5.124 21.178.001 8.627 7.226 14.112 18.077 14.112 30.213z" fill="#fff"/><g><path d="m323.473 238.641c-7.047 0-10.896-3.096-13.706-5.356-2.44-1.963-3.913-3.148-7.437-3.148-3.523 0-4.996 1.185-7.436 3.147-2.81 2.261-6.657 5.356-13.704 5.356s-10.895-3.096-13.705-5.356c-2.44-1.963-3.912-3.147-7.436-3.147-2.761 0-5-2.239-5-5s2.239-5 5-5c7.046 0 10.895 3.096 13.704 5.356 2.44 1.963 3.913 3.148 7.436 3.148s4.996-1.185 7.435-3.147c2.81-2.261 6.657-5.356 13.704-5.356s10.895 3.096 13.705 5.356c2.44 1.963 3.913 3.148 7.438 3.148 3.524 0 4.997-1.185 7.437-3.148 2.81-2.26 6.658-5.356 13.706-5.356 2.761 0 5 2.239 5 5s-2.239 5-5 5c-3.524 0-4.997 1.185-7.438 3.148-2.808 2.259-6.656 5.355-13.703 5.355z" fill="#ffd6bb"/></g></g></g><g fill="#00c"><path d="m169.873 291.933h-95.575c-12.471 0-22.618 10.146-22.618 22.618v132.654c0 12.471 10.146 22.617 22.618 22.617h49.702c2.761 0 5-2.239 5-5s-2.239-5-5-5h-49.702c-6.958 0-12.618-5.66-12.618-12.617v-132.654c0-6.958 5.66-12.618 12.618-12.618h95.575c6.957 0 12.617 5.66 12.617 12.618v132.654c0 6.957-5.66 12.617-12.617 12.617h-11.873c-2.761 0-5 2.239-5 5s2.239 5 5 5h11.873c12.471 0 22.617-10.146 22.617-22.617v-132.654c0-12.472-10.146-22.618-22.617-22.618z"/><path d="m147.887 256.239c1.432-2.361.679-5.436-1.682-6.868-7.266-4.408-15.606-6.737-24.12-6.737s-16.854 2.33-24.12 6.737c-2.361 1.432-3.114 4.507-1.682 6.868.941 1.551 2.589 2.408 4.28 2.408.883 0 1.778-.234 2.588-.726 5.702-3.459 12.249-5.287 18.933-5.287s13.232 1.828 18.934 5.287c2.361 1.432 5.437.679 6.869-1.682z"/><path d="m122.085 260.391c-4.147 0-8.211 1.135-11.751 3.283-2.361 1.433-3.113 4.508-1.681 6.869 1.433 2.361 4.507 3.113 6.869 1.681 3.953-2.398 9.177-2.397 13.128 0 .811.492 1.706.726 2.589.726 1.69 0 3.339-.857 4.28-2.407 1.432-2.361.68-5.436-1.681-6.869-3.542-2.148-7.605-3.283-11.753-3.283z"/><path d="m91.709 242.872c9.148-5.549 19.652-8.483 30.376-8.483s21.228 2.934 30.376 8.483c.811.492 1.705.726 2.588.726 1.69 0 3.339-.857 4.28-2.407 1.432-2.361.679-5.436-1.682-6.868-10.713-6.499-23.01-9.933-35.563-9.933s-24.85 3.435-35.563 9.933c-2.361 1.432-3.114 4.507-1.682 6.868 1.434 2.36 4.508 3.115 6.87 1.681z"/><path d="m302.335 63.966c-23.183 0-45.211 7.3-63.703 21.11-2.213 1.652-2.667 4.785-1.014 6.998 1.651 2.212 4.785 2.667 6.998 1.014 16.75-12.509 36.709-19.122 57.719-19.122 53.192 0 96.467 43.276 96.467 96.468 0 27.351-11.684 53.524-32.056 71.808-16.228 14.564-27.372 33.175-32.413 53.627-1.79-.447-3.661-.688-5.588-.688h-52.822c-1.932 0-3.809.242-5.604.692-5.039-20.452-16.172-39.068-32.403-53.636-20.5-18.401-32.182-44.746-32.049-72.279.092-19.174 5.776-37.661 16.437-53.461 1.544-2.289.94-5.397-1.349-6.941-2.289-1.545-5.397-.942-6.941 1.349-11.77 17.445-18.044 37.849-18.146 59.006-.146 30.386 12.745 59.461 35.37 79.768 15.317 13.749 25.649 31.449 29.93 50.855-5.078 4.236-8.317 10.607-8.317 17.721v39.055c0 9.288 5.519 17.306 13.448 20.961v22.557c0 8.334 6.781 15.115 15.116 15.115 8.334 0 15.115-6.781 15.115-15.115v-20.446h11.61v20.446c0 8.334 6.781 15.115 15.116 15.115 8.334 0 15.115-6.781 15.115-15.115v-22.557c7.928-3.655 13.448-11.673 13.448-20.961v-39.055c0-7.111-3.236-13.48-8.31-17.715 4.279-19.408 14.603-37.11 29.918-50.854 22.482-20.178 35.377-49.063 35.377-79.25-.002-58.708-47.763-106.469-106.469-106.47zm-15.807 336.862c0 2.82-2.295 5.115-5.115 5.115-2.821 0-5.116-2.295-5.116-5.115v-20.446h10.231zm36.726 5.115c-2.821 0-5.116-2.295-5.116-5.115v-20.446h10.231v20.446c.001 2.82-2.294 5.115-5.115 5.115zm18.563-48.633c0 7.208-5.864 13.073-13.073 13.073h-52.822c-7.208 0-13.073-5.864-13.073-13.073v-39.055c0-7.208 5.864-13.073 13.073-13.073h52.822c7.208 0 13.073 5.864 13.073 13.073z"/><path d="m403.44 64.986-15.876 15.876c-1.953 1.953-1.953 5.119 0 7.071.977.976 2.256 1.464 3.536 1.464s2.559-.488 3.536-1.464l15.876-15.876c1.953-1.953 1.953-5.119 0-7.071-1.954-1.952-5.119-1.952-7.072 0z"/><path d="m213.567 89.398c1.279 0 2.559-.488 3.536-1.464 1.953-1.953 1.953-5.119 0-7.071l-15.875-15.876c-1.953-1.952-5.118-1.952-7.071 0-1.953 1.953-1.953 5.119 0 7.071l15.875 15.876c.976.976 2.256 1.464 3.535 1.464z"/><path d="m450.319 168.164h-22.452c-2.761 0-5 2.239-5 5s2.239 5 5 5h22.452c2.761 0 5-2.239 5-5s-2.238-5-5-5z"/><path d="m154.348 178.164h22.452c2.761 0 5-2.239 5-5s-2.239-5-5-5h-22.452c-2.761 0-5 2.239-5 5s2.238 5 5 5z"/><path d="m302.333 52.63c2.761 0 5-2.239 5-5v-22.452c0-2.761-2.239-5-5-5s-5 2.239-5 5v22.452c0 2.761 2.239 5 5 5z"/></g><g opacity=".1"><g><path d="m143.607 285.647c-.883 0-1.778-.234-2.588-.726-5.702-3.459-12.249-5.287-18.933-5.287-6.685 0-13.232 1.828-18.934 5.287-2.361 1.434-5.436.679-6.868-1.682s-.679-5.436 1.682-6.868c7.266-4.408 15.606-6.737 24.12-6.737s16.854 2.33 24.12 6.737c2.361 1.432 3.114 4.507 1.682 6.868-.942 1.55-2.591 2.408-4.281 2.408z" fill="#00c"/></g><g><path d="m131.238 299.95c-.884 0-1.778-.234-2.589-.726-3.951-2.397-9.177-2.397-13.128 0-2.362 1.433-5.436.679-6.869-1.681-1.432-2.361-.68-5.436 1.681-6.869 3.54-2.147 7.604-3.283 11.752-3.283s8.211 1.135 11.751 3.283c2.361 1.433 3.113 4.508 1.681 6.869-.94 1.549-2.589 2.407-4.279 2.407z" fill="#00c"/></g><g><path d="m155.05 270.598c-.883 0-1.778-.234-2.588-.726-9.148-5.549-19.652-8.483-30.376-8.483s-21.228 2.934-30.376 8.483c-2.361 1.433-5.436.679-6.868-1.682s-.679-5.436 1.682-6.868c10.713-6.499 23.01-9.933 35.563-9.933s24.85 3.435 35.563 9.933c2.361 1.432 3.114 4.507 1.682 6.868-.943 1.551-2.592 2.408-4.282 2.408z" fill="#00c"/></g></g></g><g><path d="m461.319 136.319c-1.28 0-2.559-.488-3.536-1.464l-11-11c-1.953-1.953-1.953-5.119 0-7.071l11-11c1.953-1.952 5.118-1.952 7.071 0l11 11c1.953 1.953 1.953 5.119 0 7.071l-11 11c-.976.976-2.255 1.464-3.535 1.464zm-3.928-16 3.929 3.929 3.929-3.929-3.929-3.929z" fill="#ff6c6c"/></g><g><path d="m84.115 200.889c-1.28 0-2.559-.488-3.536-1.464l-11-11c-1.953-1.953-1.953-5.119 0-7.071l11-11c1.953-1.952 5.118-1.952 7.071 0l11 11c1.953 1.953 1.953 5.119 0 7.071l-11 11c-.976.976-2.255 1.464-3.535 1.464zm-3.929-16 3.929 3.929 3.929-3.929-3.929-3.929z" fill="#ff6c6c"/></g><g><path d="m391.1 380.454c-1.28 0-2.559-.488-3.536-1.464l-11-11c-1.953-1.953-1.953-5.119 0-7.071l11-11c1.953-1.952 5.118-1.952 7.071 0l11 11c1.953 1.953 1.953 5.119 0 7.071l-11 11c-.976.975-2.256 1.464-3.535 1.464zm-3.929-16 3.929 3.929 3.929-3.929-3.929-3.929z" fill="#ff9d33"/></g><g><path d="m136.244 122.819c-7.175 0-13.012-5.837-13.012-13.012s5.837-13.012 13.012-13.012 13.012 5.837 13.012 13.012-5.838 13.012-13.012 13.012zm0-16.024c-1.661 0-3.012 1.351-3.012 3.012s1.351 3.012 3.012 3.012 3.012-1.351 3.012-3.012-1.351-3.012-3.012-3.012z" fill="#6c6cff"/></g><g><path d="m427.868 336.508c-7.175 0-13.012-5.837-13.012-13.012s5.837-13.012 13.012-13.012 13.012 5.837 13.012 13.012-5.838 13.012-13.012 13.012zm0-16.024c-1.661 0-3.012 1.351-3.012 3.012s1.351 3.012 3.012 3.012 3.012-1.351 3.012-3.012c-.001-1.661-1.352-3.012-3.012-3.012z" fill="#6c6cff"/></g></g></g></svg>