<svg id="Capa_1" enable-background="new 0 0 512 512" height="512" viewBox="0 0 512 512" width="512" xmlns="http://www.w3.org/2000/svg" xmlns:xlink="http://www.w3.org/1999/xlink"><linearGradient id="SVGID_1_" gradientUnits="userSpaceOnUse" x1="503.472" x2="20.423" y1="540.362" y2="-14.694"><stop offset="0" stop-color="#ffa052"/><stop offset="1" stop-color="#fff" stop-opacity="0"/></linearGradient><g><path d="m500.574 200.6c7.18-16.204 11.241-34.098 11.419-52.921.684-71.971-56.211-132.099-128.121-135.166-23.591-1.006-45.905 4.091-65.495 13.843-39.321 19.575-85.436 19.575-124.757 0-19.589-9.752-41.903-14.849-65.494-13.843-71.908 3.068-128.803 63.194-128.12 135.166.179 18.823 4.239 36.717 11.419 52.921 15.628 35.269 15.628 75.53 0 110.8-7.18 16.204-11.241 34.099-11.419 52.922-.683 71.972 56.212 132.098 128.122 135.165 23.591 1.006 45.905-4.091 65.494-13.843 39.321-19.575 85.435-19.575 124.755 0 19.589 9.752 41.904 14.849 65.495 13.843 71.909-3.067 128.804-63.194 128.121-135.165-.179-18.823-4.239-36.717-11.419-52.921-15.628-35.271-15.628-75.532 0-110.801z" fill="url(#SVGID_1_)"/><g><path d="m394.852 131.871h-3v-3c0-2.762-2.238-5-5-5s-5 2.238-5 5v3h-3c-2.762 0-5 2.238-5 5s2.238 5 5 5h3v3c0 2.762 2.238 5 5 5s5-2.238 5-5v-3h3c2.762 0 5-2.238 5-5s-2.239-5-5-5z" fill="#c182f9"/><path d="m101.443 294.383h-3v-3c0-2.762-2.238-5-5-5s-5 2.238-5 5v3h-3c-2.762 0-5 2.238-5 5s2.238 5 5 5h3v3c0 2.762 2.238 5 5 5s5-2.238 5-5v-3h3c2.762 0 5-2.238 5-5s-2.238-5-5-5z" fill="#fdd250"/><path d="m419 99.306c-1.279 0-2.56-.488-3.535-1.465l-4.465-4.464-4.465 4.464c-1.951 1.953-5.119 1.953-7.07 0-1.953-1.952-1.953-5.118 0-7.07l8-8c1.951-1.953 5.119-1.953 7.07 0l8 8c1.953 1.952 1.953 5.118 0 7.07-.975.976-2.256 1.465-3.535 1.465z" fill="#ffa052"/><path d="m109.443 159.485c-1.279 0-2.56-.488-3.535-1.465l-4.465-4.464-4.465 4.464c-1.951 1.953-5.119 1.953-7.07 0-1.953-1.952-1.953-5.118 0-7.07l8-8c1.951-1.953 5.119-1.953 7.07 0l8 8c1.953 1.952 1.953 5.118 0 7.07-.975.977-2.255 1.465-3.535 1.465z" fill="#fdd250"/><path d="m124.292 346.426c-1.279 0-2.56-.488-3.535-1.465l-4.465-4.464-4.465 4.464c-1.951 1.953-5.119 1.953-7.07 0-1.953-1.952-1.953-5.118 0-7.07l8-8c1.951-1.953 5.119-1.953 7.07 0l8 8c1.953 1.952 1.953 5.118 0 7.07-.976.976-2.256 1.465-3.535 1.465z" fill="#c182f9"/><g><path d="m398.932 232.377h-14.49v-13.067c0-2.247-1.821-4.068-4.068-4.068h-12.205c-2.247 0-4.068 1.821-4.068 4.068v13.066h-22.764v-112.665c0-29.219-23.686-52.905-52.905-52.905h-64.862c-8.831 0-17.149 2.176-24.468 6.001-8.035-11.613-21.73-19.012-37.102-18.185-21.617 1.163-39.047 18.875-39.889 40.507-.938 24.106 18.326 43.943 42.223 43.943 2.152 0 4.265-.163 6.331-.474v93.778h-22.764v-13.066c0-2.247-1.821-4.068-4.068-4.068h-12.205c-2.247 0-4.068 1.821-4.068 4.068v13.067h-14.49c-2.247 0-4.068 1.821-4.068 4.068v11.515c0 2.247 1.821 4.068 4.068 4.068h14.49v6.066c0 55.048 44.625 99.672 99.672 99.672h-1.336v23.584c0 4.494 3.643 8.136 8.136 8.136h7.865v92.706c0 2.761 2.239 5 5 5h18.207c2.761 0 5-2.239 5-5v-73.787c13.503 14.77 33.096 23.879 54.807 23.339 37.988-.944 68.948-31.883 69.917-69.871.553-21.688-8.522-41.264-23.252-54.774 8.188-14.472 12.866-31.192 12.866-49.006v-6.066h14.49c2.247 0 4.068-1.821 4.068-4.068v-11.515c0-2.246-1.822-4.067-4.068-4.067zm-251.033 25.718v-6.066h22.764v9.223c0 29.219 23.686 52.905 52.905 52.905h44.301c-5.658 6.807-10.066 14.681-12.911 23.269h-27.728c-43.813 0-79.331-35.518-79.331-79.331zm216.202 0c0 13.555-3.406 26.311-9.399 37.471-6.571-3.23-13.706-5.485-21.22-6.575 4.977-8.066 7.855-17.565 7.855-27.739v-9.223h22.764z" fill="#590bb2" opacity=".1"/><g><path d="m241.897 362.488h28.207v97.706h-28.207z" fill="#ffa052"/><path d="m241.897 362.488h28.207v16.512h-28.207z" fill="#ff8736"/><path d="m277.969 362.488h-43.937c-4.494 0-8.137-3.643-8.137-8.137v-23.584h60.21v23.584c0 4.494-3.643 8.137-8.136 8.137z" fill="#ffa052"/><path d="m225.895 330.767h60.21v16.233h-60.21z" fill="#ff8736"/><path d="m398.932 225.029h-285.864c-2.247 0-4.068-1.821-4.068-4.068v-11.515c0-2.247 1.821-4.068 4.068-4.068h285.863c2.247 0 4.068 1.821 4.068 4.068v11.515c.001 2.246-1.821 4.068-4.067 4.068z" fill="#ffa052"/><g><path d="m284.769 330.767h-57.539c-55.048 0-99.673-44.625-99.673-99.673v-38.784c0-2.247 1.821-4.068 4.068-4.068h12.205c2.247 0 4.068 1.821 4.068 4.068v38.784c0 43.813 35.518 79.331 79.331 79.331h57.539c43.813 0 79.331-35.518 79.331-79.331v-38.784c0-2.247 1.821-4.068 4.068-4.068h12.205c2.247 0 4.068 1.821 4.068 4.068v38.784c.002 55.048-44.623 99.673-99.671 99.673z" fill="#d6b0ff"/></g><path d="m288.431 287.157h-64.863c-29.219 0-52.905-23.686-52.905-52.905v-141.541c0-29.219 23.686-52.905 52.905-52.905h64.863c29.219 0 52.905 23.686 52.905 52.905v141.541c0 29.218-23.686 52.905-52.905 52.905z" fill="#d6b0ff"/><g fill="#c182f9"><g><g><path d="m219.75 39.95v74.17c0 4.83-3.92 8.75-8.75 8.75s-8.75-3.92-8.75-8.75v-69.83c5.42-2.4 11.31-3.9 17.5-4.34z"/><path d="m249.75 39.81v74.31c0 4.83-3.92 8.75-8.75 8.75s-8.75-3.92-8.75-8.75v-74.31z"/><path d="m279.75 39.81v74.31c0 4.83-3.92 8.75-8.75 8.75s-8.75-3.92-8.75-8.75v-74.31z"/><path d="m309.75 44.29v69.83c0 4.83-3.92 8.75-8.75 8.75s-8.75-3.92-8.75-8.75v-74.17c6.19.44 12.08 1.94 17.5 4.34z"/></g><g><path d="m294.75 214.28v72.51c-2.07.24-4.18.37-6.32.37h-11.18v-72.88c0-4.83 3.92-8.75 8.75-8.75s8.75 3.92 8.75 8.75z"/><path d="m264.75 229.13v58.03h-17.5v-58.03c0-4.84 3.92-8.75 8.75-8.75s8.75 3.91 8.75 8.75z"/><path d="m234.75 214.28v72.88h-11.18c-2.14 0-4.25-.13-6.32-.37v-72.51c0-4.83 3.92-8.75 8.75-8.75s8.75 3.92 8.75 8.75z"/></g></g><path d="m170.664 158.045h170.673v10.872h-170.673z"/></g></g><circle cx="256" cy="163.481" fill="#c182f9" r="21.396"/><circle cx="256" cy="163.481" fill="#cca1ff" r="11.505"/><g><circle cx="323.083" cy="333" fill="#ff8736" r="71.768"/><path d="m280.073 310.05v45.9h-25.01c-2.43-7.21-3.75-14.92-3.75-22.95s1.32-15.74 3.75-22.95z" fill="#ffeadc"/><path d="m311.097 379.058-31.024-23.104v-45.908l31.024-23.104c3.298-2.456 7.986-.102 7.986 4.01v84.095c0 4.113-4.688 6.467-7.986 4.011z" fill="#ffbe92"/><g><path d="m336.752 353.666c-1.43 0-2.849-.61-3.838-1.792-1.771-2.119-1.49-5.272.628-7.043 3.519-2.942 5.536-7.254 5.536-11.831s-2.018-8.889-5.536-11.831c-2.118-1.771-2.399-4.924-.628-7.043s4.924-2.4 7.043-.628c5.796 4.847 9.121 11.956 9.121 19.502s-3.325 14.655-9.121 19.502c-.935.783-2.074 1.164-3.205 1.164z" fill="#ffeadc"/></g><g><path d="m350.088 368.333c-1.43 0-2.849-.61-3.838-1.792-1.771-2.118-1.49-5.271.628-7.043 7.879-6.589 12.397-16.247 12.397-26.498s-4.519-19.909-12.397-26.498c-2.118-1.771-2.399-4.925-.628-7.043 1.771-2.119 4.924-2.4 7.043-.628 10.157 8.494 15.982 20.948 15.982 34.169s-5.825 25.675-15.982 34.169c-.935.783-2.074 1.164-3.205 1.164z" fill="#ffeadc"/></g><path d="m287.911 333h-18.828c-2.761 0-5-2.239-5-5v-5.667c0-2.761 2.239-5 5-5h18.828c2.761 0 5 2.239 5 5v5.667c0 2.761-2.238 5-5 5z" fill="#ff8736"/></g><g><circle cx="164.333" cy="69.816" fill="#fdd250" r="42.256"/><path d="m398.932 200.377h-9.489v-8.066c0-5-4.068-9.068-9.068-9.068h-12.205c-5 0-9.068 4.068-9.068 9.068v8.066h-12.765v-42.076c0-2.762-2.238-5-5-5s-5 2.238-5 5v75.951c0 8.076-2.02 15.684-5.566 22.365-2.529-.252-5.093-.385-7.687-.385-22.842 0-43.374 10.04-57.449 25.925h-42.066c-26.414 0-47.904-21.49-47.904-47.904v-118.564c20.602-5.09 35.926-23.722 35.926-45.873 0-7.84-1.93-15.234-5.324-21.75 5.371-2.093 11.2-3.26 17.302-3.26h64.863c26.414 0 47.904 21.49 47.904 47.904v34.988c0 2.762 2.238 5 5 5s5-2.238 5-5v-34.987c0-31.929-25.976-57.904-57.904-57.904h-64.863c-8.155 0-15.913 1.709-22.956 4.768-8.676-10.39-21.717-17.015-36.28-17.015-26.057 0-47.256 21.199-47.256 47.257 0 26.057 21.199 47.256 47.256 47.256.446 0 .888-.021 1.331-.034v83.338h-12.765v-8.066c0-5-4.068-9.068-9.068-9.068h-12.205c-5 0-9.068 4.068-9.068 9.068v8.066h-9.489c-5 0-9.068 4.068-9.068 9.068v11.515c0 5 4.068 9.068 9.068 9.068h9.489v1.066c0 55.589 43.56 101.188 98.337 104.476v18.781c0 7.243 5.894 13.137 13.137 13.137h2.865v92.705c0 2.762 2.238 5 5 5s5-2.238 5-5v-92.705h7.634c2.874 5.689 6.434 10.971 10.574 15.743v76.962c0 2.762 2.238 5 5 5s5-2.238 5-5v-67.329c13.154 10.563 29.836 16.904 47.979 16.904 14.718 0 29.035-4.197 41.404-12.137 2.324-1.492 2.998-4.585 1.507-6.909-1.492-2.323-4.586-2.997-6.909-1.507-10.754 6.903-23.203 10.553-36.002 10.553-36.816 0-66.769-29.952-66.769-66.769s29.952-66.769 66.769-66.769 66.769 29.952 66.769 66.769c0 12.837-3.67 25.319-10.612 36.097-1.496 2.322-.826 5.416 1.495 6.911 2.325 1.498 5.416.825 6.911-1.495 7.985-12.396 12.206-26.751 12.206-41.513 0-20.963-8.454-39.983-22.123-53.851 7.476-14.4 11.713-30.739 11.713-48.054v-1.066h9.489c5 0 9.068-4.068 9.068-9.068v-11.515c0-5-4.068-9.068-9.068-9.068zm-271.855-130.561c0-20.544 16.713-37.257 37.256-37.257 20.544 0 37.257 16.713 37.257 37.257 0 20.543-16.713 37.256-37.257 37.256-20.543 0-37.256-16.713-37.256-37.256zm-13.077 150.212v-9.651h8.558v9.651zm109.568 72.128h34.56c-2.632 4.171-4.872 8.61-6.672 13.27h-24.226c-40.986 0-74.331-33.345-74.331-74.331v-1.066h12.765v4.224c0 31.928 25.976 57.903 57.904 57.903zm-57.904-81.779v9.651h-12.765v-9.651zm-33.106 20.718v-37.853h10.342v37.853c0 46.5 37.831 84.331 84.331 84.331h21.137c-.792 3.369-1.372 6.819-1.703 10.342h-19.435c-52.203 0-94.672-42.47-94.672-94.673zm109.338 126.393h-7.865c-1.729 0-3.137-1.407-3.137-3.137v-18.584h15.49c.27 7.569 1.642 14.858 3.958 21.721zm117.205-147.111v9.651h-12.765v-9.651zm-12.765 23.875v-4.224h12.765v1.066c0 11.039-2.441 21.51-6.779 30.936-3.625-1.499-7.391-2.72-11.268-3.655 3.384-7.347 5.282-15.516 5.282-24.123zm33.106-3.157c0 14.759-3.406 28.732-9.456 41.195-2.753-2.132-5.655-4.078-8.687-5.827 4.996-10.763 7.801-22.742 7.801-35.368v-37.853h10.342zm18.558-11.067h-8.558v-9.651h8.558z" fill="#590bb2"/><path d="m180.947 64.009c0-9.161-7.453-16.613-16.613-16.613s-16.613 7.453-16.613 16.613c0 4.518 1.818 8.615 4.755 11.613-2.936 2.998-4.755 7.095-4.755 11.613 0 2.761 2.238 5 5 5s5-2.239 5-5c0-3.646 2.967-6.613 6.613-6.613s6.613 2.967 6.613 6.613c0 2.761 2.238 5 5 5s5-2.239 5-5c0-4.518-1.818-8.615-4.755-11.613 2.936-2.997 4.755-7.095 4.755-11.613zm-16.614-6.613c3.646 0 6.613 2.967 6.613 6.613s-2.967 6.613-6.613 6.613-6.613-2.967-6.613-6.613 2.967-6.613 6.613-6.613z" fill="#fff"/></g></g></g></g></svg>