<svg width="24" height="24" xmlns="http://www.w3.org/2000/svg">

 <g>
  <title>background</title>
  <rect fill="none" id="canvas_background" height="402" width="582" y="-1" x="-1"/>
 </g>
 <g>
  <title>Layer 1</title>
  <path fill="#4ae7ff" id="svg_1" d="m21.75,20l-19.5,0c-1.241,0 -2.25,-1.009 -2.25,-2.25l0,-11.5c0,-1.241 1.009,-2.25 2.25,-2.25l19.5,0c1.241,0 2.25,1.009 2.25,2.25l0,11.5c0,1.241 -1.009,2.25 -2.25,2.25zm-19.5,-14.5c-0.414,0 -0.75,0.336 -0.75,0.75l0,11.5c0,0.414 0.336,0.75 0.75,0.75l19.5,0c0.414,0 0.75,-0.336 0.75,-0.75l0,-11.5c0,-0.414 -0.336,-0.75 -0.75,-0.75l-19.5,0z"/>
  <path fill="#4ae7ff" id="svg_2" d="m11.999,13.996c-0.438,0 -0.875,-0.103 -1.273,-0.309l-10.323,-5.393c-0.367,-0.191 -0.509,-0.644 -0.318,-1.011c0.192,-0.367 0.646,-0.509 1.012,-0.317l10.32,5.39c0.358,0.185 0.808,0.185 1.169,-0.002l10.317,-5.388c0.367,-0.193 0.82,-0.05 1.012,0.317s0.05,0.82 -0.317,1.012l-10.32,5.39c-0.402,0.207 -0.84,0.311 -1.279,0.311z"/>
 </g>
</svg>