<svg width="24" height="24" xmlns="http://www.w3.org/2000/svg">

 <g>
  <title>background</title>
  <rect fill="none" id="canvas_background" height="402" width="582" y="-1" x="-1"/>
 </g>
 <g>
  <title>Layer 1</title>
  <path fill="#4ae7ff" id="svg_1" d="m0.338,4.422l2.597,1.708l0,10.867l-2.712,2.676c-0.476,0.471 -0.141,1.284 0.527,1.284l5.869,0c0.667,0 1.004,-0.812 0.527,-1.284l-2.712,-2.676l0,-7.912c2.781,5.916 5.492,11.673 5.427,11.542c0.274,0.556 1.141,0.571 1.376,-0.075l0.001,-0.002s0.001,-0.001 0.001,-0.002c0.65,-1.793 2.044,-5.638 1.955,-5.394c0.05,-0.139 2.421,-6.906 2.458,-7.011l0,9.773l-1.741,1.765c-0.467,0.474 -0.13,1.277 0.534,1.277l8.805,0c0.662,0 1,-0.799 0.536,-1.274l-1.673,-1.713l-0.067,-11.933l1.731,-1.708c0.476,-0.471 0.141,-1.284 -0.527,-1.284c-0.702,0 2.545,-0.001 -6.87,0.004c-0.958,0.028 -0.634,0.889 -3.986,9.772l-4.11,-9.329c-0.12,-0.272 -0.39,-0.448 -0.687,-0.448l-6.847,0c-0.742,0.001 -1.033,0.97 -0.412,1.377zm2.239,15.036l1.107,-1.093l1.107,1.093l-2.214,0zm14.575,-14.912l4.271,0c-0.479,0.535 -0.881,0.691 -0.879,1.185l0.071,12.551c0.002,0.476 0.391,0.643 0.854,1.175l-5.23,0c0.517,-0.587 0.914,-0.748 0.914,-1.234l0,-13.677l-0.001,0zm-10.044,0l4.554,10.335l-1.226,3.447c-6.176,-13.116 -5.959,-13.322 -7.181,-13.782l3.853,0z"/>
 </g>
</svg>