<svg width="24" height="24" xmlns="http://www.w3.org/2000/svg">

 <g>
  <title>background</title>
  <rect fill="none" id="canvas_background" height="402" width="582" y="-1" x="-1"/>
 </g>
 <g>
  <title>Layer 1</title>
  <path fill="#4ae7ff" id="svg_1" d="m9.939,7.856c-0.497,-0.297 -1.134,0.062 -1.134,0.644l0,7c0,0.585 0.638,0.939 1.134,0.645l5.869,-3.495c0.488,-0.291 0.487,-0.997 0.001,-1.289l-5.87,-3.505zm0.366,6.325l0,-4.36l3.655,2.183l-3.655,2.177z"/>
  <path fill="#4ae7ff" id="svg_2" d="m19.904,3.271c-4.653,-0.691 -11.153,-0.691 -15.808,0c-1.862,0.276 -3.329,1.738 -3.649,3.636c-0.596,3.523 -0.596,6.664 0,10.186c0.32,1.899 1.787,3.36 3.649,3.636c2.332,0.346 5.124,0.519 7.915,0.519c2.786,0 5.571,-0.172 7.894,-0.518c1.86,-0.276 3.326,-1.737 3.648,-3.636c0.596,-3.523 0.596,-6.665 0,-10.188c-0.32,-1.897 -1.787,-3.359 -3.649,-3.635zm2.17,13.573c-0.213,1.256 -1.173,2.222 -2.39,2.402c-4.518,0.671 -10.838,0.671 -15.368,-0.001c-1.218,-0.181 -2.179,-1.146 -2.391,-2.402c-0.574,-3.394 -0.574,-6.291 0,-9.687c0.213,-1.256 1.173,-2.22 2.392,-2.402c2.262,-0.335 4.973,-0.503 7.682,-0.503c2.711,0 5.422,0.168 7.684,0.503c1.218,0.181 2.179,1.146 2.391,2.402c0.574,3.396 0.574,6.293 0,9.688z"/>
 </g>
</svg>